# xmcd
#
# Track frame offsets:
#	187
#	7480
#	87832
#	162807
#	171820
#	264207
#	287730
#
# Disc length: 3936 seconds
#
# Revision: 1
# Processed by: cddbd v1.5.1PL0 Copyright (c) Steve Scherf et al.
# Submitted via: CDex 1.50Beta5
#
DISCID=550f5e07
DTITLE=ワタル - 超ワタル2
DYEAR=1900
DGENRE=Anime
TTITLE0=三重野瞳/ひとつのハートで(Short Version)
TTITLE1=監督・脚本:井内秀治/2-1
TTITLE2=監督・脚本:井内秀治/2-2
TTITLE3=伊倉一恵/君に続く空(Short Version)
TTITLE4=監督・脚本:井内秀治/爆おもシバチャン竜ちゃん
TTITLE5=監督・脚本:井内秀治/愛のはにわ2
TTITLE6=三重野瞳/BOYS BE AMBITIOUS
EXTD=
EXTT0=
EXTT1=
EXTT2=
EXTT3=
EXTT4=
EXTT5=
EXTT6=
PLAYORDER=
